<?xml version="1.0" standalone="no"?>
<!DOCTYPE svg PUBLIC "-//W3C//DTD SVG 20010904//EN"
 "http://www.w3.org/TR/2001/REC-SVG-20010904/DTD/svg10.dtd">
<svg version="1.0" xmlns="http://www.w3.org/2000/svg"
 width="900.000000pt" height="355.000000pt" viewBox="0 0 900.000000 355.000000"
 preserveAspectRatio="xMidYMid meet">

<g transform="translate(0.000000,355.000000) scale(0.100000,-0.100000)"
fill="#000000" stroke="none">
<path d="M4768 2982 c-32 -19 -98 -86 -199 -202 -83 -96 -178 -205 -210 -241
l-58 -66 34 -41 c19 -22 35 -43 35 -46 0 -3 -17 -14 -37 -25 l-38 -19 -174
156 -173 156 -46 -24 c-25 -14 -54 -34 -65 -45 -20 -20 -20 -20 -14 18 3 22 2
37 -4 37 -29 0 -562 -176 -611 -202 l-56 -30 4 -76 c3 -43 7 -110 10 -150 6
-82 -2 -76 79 -56 23 6 25 3 25 -27 l0 -34 -47 3 c-63 5 -173 -21 -244 -58
l-58 -29 6 67 c19 233 -172 451 -437 497 -287 50 -604 -24 -920 -215 -80 -49
-169 -124 -170 -144 0 -7 243 -431 266 -464 1 -2 25 7 53 19 29 12 53 20 55
18 2 -2 40 -87 84 -189 149 -345 354 -815 355 -816 1 -1 97 29 212 67 134 43
229 79 262 101 29 18 53 36 53 39 0 4 -18 73 -39 155 -22 82 -38 150 -36 152
1 1 17 -17 36 -41 131 -171 384 -198 579 -62 l65 45 6 -70 c3 -38 8 -73 12
-76 4 -4 94 6 201 21 156 23 205 34 243 54 l48 26 3 128 c1 70 4 127 5 127 1
0 166 -81 367 -181 l364 -181 53 27 53 27 0 171 0 172 52 13 c29 6 80 25 115
41 35 17 63 27 63 23 0 -4 -7 -45 -15 -91 -8 -47 -14 -86 -12 -87 1 -1 102
-18 224 -38 l221 -37 42 21 c23 12 43 20 44 18 2 -2 18 -31 37 -66 18 -34 37
-62 42 -62 4 0 21 7 37 15 l29 15 6 -43 7 -43 255 -46 255 -47 50 27 49 27 -6
62 c-6 62 -6 62 22 68 15 4 48 13 72 21 25 8 45 13 46 11 1 -1 -3 -39 -8 -84
-6 -46 -8 -85 -6 -88 3 -2 70 -14 150 -25 79 -11 153 -23 165 -25 18 -4 21
-13 23 -72 1 -37 3 -68 4 -69 1 -1 80 -27 175 -58 l172 -56 38 19 c20 11 45
25 54 33 11 8 106 278 248 701 127 379 230 690 228 691 -2 1 -109 28 -240 60
-226 55 -237 57 -267 42 -41 -22 -51 -20 -51 8 0 30 25 22 -303 95 l-268 59
-50 -28 -51 -28 1 -138 2 -139 -75 -12 c-58 -10 -164 -48 -216 -80 -3 -2 -23
116 -45 262 l-40 265 -172 1 c-95 1 -179 2 -185 3 -7 1 -41 -13 -75 -32 l-62
-33 -138 4 c-137 4 -138 4 -195 -26 -59 -30 -58 -29 -74 -119 l-6 -38 -31 26
c-62 52 -194 104 -266 104 -20 0 -31 4 -26 9 6 5 75 43 155 86 80 42 149 81
153 85 10 9 -213 349 -228 350 -5 0 -31 -13 -57 -28z m101 -212 c28 -38 51
-73 51 -77 0 -5 -76 -45 -168 -89 -140 -69 -169 -80 -181 -69 -12 11 5 36 109
159 67 80 126 146 130 146 5 0 31 -31 59 -70z m-1153 -492 c3 -82 9 -148 13
-147 3 0 53 66 109 147 57 81 113 159 125 173 l22 27 120 -114 119 -114 -69
-73 c-39 -39 -117 -120 -174 -179 -58 -59 -102 -110 -99 -113 3 -3 75 -34 161
-68 146 -59 158 -66 188 -107 18 -25 49 -60 68 -78 48 -45 180 -109 241 -117
l50 -7 0 -109 c0 -60 -2 -109 -5 -109 -3 0 -186 91 -408 202 -221 112 -405
204 -409 206 -5 2 -8 -95 -8 -216 l0 -219 -101 -12 c-56 -7 -102 -11 -104 -9
-2 2 -5 44 -6 93 -3 81 0 96 27 155 26 59 29 75 29 175 0 98 -3 116 -27 167
-15 32 -39 74 -54 94 -25 33 -28 47 -40 187 -7 84 -13 165 -14 181 0 30 6 30
-76 10 -24 -6 -25 -5 -22 36 l3 43 160 48 160 47 7 -26 c4 -15 10 -93 14 -174z
m2169 180 c3 -13 20 -125 39 -250 l34 -228 -42 -63 c-59 -87 -81 -162 -80
-267 1 -139 57 -248 163 -317 52 -33 83 -74 68 -89 -6 -6 -227 25 -252 35 -18
7 -24 35 -55 250 -19 132 -37 241 -41 241 -4 0 -25 -50 -48 -112 -23 -62 -46
-119 -51 -127 -9 -16 -17 -2 -127 239 -24 53 -36 71 -42 60 -4 -8 -20 -97 -36
-197 -27 -172 -30 -182 -49 -178 -12 2 -68 12 -126 21 -58 10 -106 18 -107 19
-1 1 6 50 16 109 l18 108 59 60 59 60 -43 37 -42 37 45 258 c25 142 45 260 45
262 0 2 59 4 130 4 72 0 130 -2 130 -3 0 -2 11 -64 24 -138 14 -74 28 -156 32
-182 3 -27 10 -45 14 -40 3 4 19 80 34 168 15 88 32 179 38 203 l10 42 89 0
c84 0 89 -1 94 -22z m-3413 -29 c134 -23 253 -108 309 -217 31 -61 37 -166 15
-243 -35 -119 -147 -266 -272 -355 l-61 -44 62 -242 c34 -134 65 -255 68 -269
6 -25 3 -27 -51 -44 -31 -10 -80 -26 -109 -36 l-52 -17 -226 511 c-125 282
-230 517 -234 523 -4 8 -23 4 -63 -15 l-58 -28 -75 127 c-41 70 -77 134 -80
143 -11 28 222 138 386 182 166 44 291 51 441 24z m2398 -87 c30 -12 77 -41
105 -65 l50 -44 -50 -56 c-28 -31 -106 -115 -174 -187 l-123 -130 41 0 c58 0
138 33 182 76 43 42 40 44 139 -49 72 -67 73 -67 54 -88 -31 -35 -132 -100
-193 -124 -268 -108 -516 -44 -606 157 -37 83 -39 193 -5 283 41 107 158 202
293 240 74 21 216 14 287 -13z m1862 -28 c95 -20 175 -40 178 -45 3 -4 32
-137 64 -294 33 -157 62 -283 65 -280 2 3 33 118 67 256 33 137 64 252 67 255
5 5 216 -38 254 -51 8 -3 -53 -198 -184 -592 -108 -323 -196 -589 -197 -590
-1 -1 -43 10 -93 25 l-91 26 -6 60 c-3 32 -7 152 -7 265 -1 113 -4 251 -8 306
l-6 100 -50 -277 -50 -278 -30 1 c-16 0 -61 6 -100 13 l-70 12 3 74 c3 71 6
77 41 115 54 56 94 120 121 190 19 48 24 79 24 155 0 111 -23 182 -80 248 -35
41 -35 42 -29 114 3 40 8 83 11 95 3 17 -2 23 -34 30 -36 8 -37 10 -40 56 -2
26 -1 47 1 47 3 0 83 -16 179 -36z m-255 -300 c56 -27 92 -63 126 -128 17 -33
21 -58 21 -126 0 -75 -3 -92 -32 -151 -114 -235 -409 -321 -570 -166 -123 118
-111 324 27 470 120 127 293 168 428 101z m-2323 -66 l7 -68 -48 21 c-26 11
-50 23 -53 25 -4 4 81 93 86 90 1 -1 4 -31 8 -68z m-813 1 c103 -45 169 -154
169 -279 0 -236 -250 -453 -474 -411 -266 49 -333 382 -117 590 125 121 285
159 422 100z"/>
<path d="M2347 2114 c-37 -11 -47 -19 -43 -32 3 -9 31 -100 62 -202 31 -102
57 -186 59 -188 4 -5 115 87 142 117 33 38 56 115 50 167 -13 119 -135 181
-270 138z m129 -130 c22 -21 25 -33 22 -69 -2 -36 -1 -41 11 -32 12 10 13 9 3
-9 -6 -11 -18 -26 -26 -33 -18 -15 -14 -23 -50 92 -23 75 -23 77 -4 77 10 0
30 -11 44 -26z"/>
<path d="M4553 2190 c-68 -39 -97 -91 -97 -171 1 -58 22 -106 63 -143 22 -20
0 -41 185 168 107 120 107 123 31 157 -61 28 -121 24 -182 -11z m104 -78 c7
-5 -10 -32 -52 -79 -35 -40 -66 -69 -68 -65 -24 42 -3 136 31 145 28 8 76 7
89 -1z"/>
<path d="M6224 1966 c-64 -28 -104 -86 -104 -151 0 -160 219 -239 323 -116 40
48 53 102 37 154 -10 30 -15 36 -17 22 -17 -87 -115 -126 -181 -70 -60 50 -49
124 22 156 l41 19 -45 -1 c-25 0 -59 -6 -76 -13z"/>
<path d="M3105 1881 c-51 -24 -80 -56 -95 -106 -32 -107 57 -215 176 -215 130
0 220 125 172 237 l-12 28 -4 -32 c-11 -99 -160 -123 -207 -33 -28 53 6 116
70 133 11 2 2 5 -20 6 -22 0 -58 -8 -80 -18z"/>
</g>
</svg>
